<svg xmlns="http://www.w3.org/2000/svg"
 xmlns:xlink="http://www.w3.org/1999/xlink"
 width="36px" height="32px"  viewBox="0 0 36 32">
<path fill-rule="evenodd"  fill="#222222"
 d="M3.1835938,4.3639297 C3.1835938,4.3639297 6.57666,4.3639297 6.57666,4.3639297 C6.57666,4.3639297 11.409912,21.81918 11.409912,21.81918 C11.547852,22.331226 12.021362,22.685928 12.553955,22.685928 C12.553955,22.685928 27.40857,22.685928 27.40857,22.685928 C27.881958,22.685928 28.296265,22.409897 28.49353,21.976715 C28.49353,21.976715 33.89868,9.564819 33.89868,9.564819 C34.05652,9.190693 34.01709,8.776936 33.80017,8.442047 C33.583008,8.107155 33.208252,7.909992 32.81372,7.909992 C32.81372,7.909992 16.400757,7.909992 16.400757,7.909992 C15.749756,7.909992 15.217163,8.442047 15.217163,9.092205 C15.217163,9.742172 15.749756,10.274227 16.400757,10.274227 C16.400757,10.274227 30.998901,10.274227 30.998901,10.274227 C30.998901,10.274227 26.619507,20.321888 26.619507,20.321888 C26.619507,20.321888 13.44165,20.321888 13.44165,20.321888 C13.44165,20.321888 8.6085205,2.8666382 8.6085205,2.8666382 C8.470581,2.3542023 7.9970703,1.9996948 7.4643555,1.9996948 C7.4643555,1.9996948 3.1835938,1.9996948 3.1835938,1.9996948 C2.5325928,1.9996948 2.0,2.5315552 2.0,3.181713 C2.0,3.8318748 2.5325928,4.3639297 3.1835938,4.3639297 ZM11.429443,30.999702 C12.909058,30.999702 14.112427,29.798256 14.112427,28.320389 C14.112427,26.84291 12.909058,25.64127 11.429443,25.64127 C9.949951,25.64127 8.746582,26.84291 8.746582,28.320389 C8.746582,29.797867 9.949951,30.999702 11.429443,30.999702 ZM28.197632,30.999702 C28.256836,30.999702 28.335815,30.999702 28.39502,30.999702 C29.105103,30.940842 29.756104,30.625572 30.229614,30.0737 C30.703003,29.542038 30.920044,28.85244 30.880493,28.123611 C30.781982,26.665558 29.499756,25.542591 28.020142,25.64127 C26.540527,25.739563 25.435791,27.039879 25.534546,28.497742 C25.633179,29.896355 26.796997,30.999702 28.197632,30.999702 Z"/>
</svg>